<svg width="22" height="22" viewBox="0 0 22 22" fill="none" xmlns="http://www.w3.org/2000/svg">
<path d="M18.2756 7.95668C18.2655 7.92734 18.2572 7.89893 18.2453 7.87051C18.2019 7.77102 18.141 7.68007 18.0657 7.60193L12.5657 2.10193C12.4875 2.02656 12.3966 1.96572 12.2971 1.92226C12.2696 1.90943 12.2402 1.90209 12.2109 1.89201C12.1342 1.86591 12.0544 1.85019 11.9735 1.84526C11.9533 1.84343 11.9359 1.83334 11.9167 1.83334H5.49999C4.48891 1.83334 3.66666 2.65559 3.66666 3.66668V18.3333C3.66666 19.3444 4.48891 20.1667 5.49999 20.1667H16.5C17.5111 20.1667 18.3333 19.3444 18.3333 18.3333V8.25001C18.3333 8.23076 18.3232 8.21334 18.3214 8.19318C18.3167 8.11266 18.3013 8.03312 18.2756 7.95668V7.95668ZM15.2038 7.33334H12.8333V4.96284L15.2038 7.33334ZM5.49999 18.3333V3.66668H11V8.25001C11 8.49313 11.0966 8.72628 11.2685 8.89819C11.4404 9.0701 11.6735 9.16668 11.9167 9.16668H16.5L16.5018 18.3333H5.49999Z" fill="#1D2127"/>
</svg>
