<svg width="31" height="40" viewBox="0 0 31 40" fill="none" xmlns="http://www.w3.org/2000/svg">
<path d="M16.2132 7.82352V2.82352H0.416626V37.1765H16.2132V32.1765C12.9773 32.1765 9.87384 30.8935 7.58574 28.61C5.29759 26.3265 4.01212 23.2294 4.01212 20C4.01212 16.7706 5.29759 13.6734 7.58574 11.3899C9.87384 9.1064 12.9773 7.82352 16.2132 7.82352Z" fill="#FCBC67"/>
<path d="M16.2133 7.82352V32.1765C19.4492 32.1765 22.5526 30.8935 24.8408 28.61C27.129 26.3265 28.4144 23.2294 28.4144 20C28.4144 16.7706 27.129 13.6734 24.8408 11.3899C22.5526 9.1064 19.4492 7.82352 16.2133 7.82352Z" fill="#FCBC67"/>
</svg>
